<?xml version="1.0" encoding="UTF-8"?>
<svg width="168px" height="144px" viewBox="0 0 168 144" version="1.1" xmlns="http://www.w3.org/2000/svg" xmlns:xlink="http://www.w3.org/1999/xlink">
    <!-- Generator: Sketch 49.3 (51167) - http://www.bohemiancoding.com/sketch -->
    <title>online-shopping</title>
    <desc>Created with Sketch.</desc>
    <defs>
        <polygon id="path-1" points="0.0196875 0.100373576 168 0.100373576 168 143.980319 0.0196875 143.980319"></polygon>
    </defs>
    <g id="Page-1" stroke="none" stroke-width="1" fill="none" fill-rule="evenodd">
        <g id="Pluebox" transform="translate(-1795.000000, -3273.000000)">
            <g id="online-shopping" transform="translate(1795.000000, 3273.000000)">
                <g id="Group-3">
                    <mask id="mask-2" fill="white">
                        <use xlink:href="#path-1"></use>
                    </mask>
                    <g id="Clip-2"></g>
                    <path d="M159.167859,138.363991 L8.83214062,138.363991 C7.07076562,138.363991 5.63751562,136.931535 5.63751562,135.170405 L5.63751562,17.7592346 L162.362484,17.7592346 L162.362484,135.170405 C162.362484,136.931535 160.929234,138.363991 159.167859,138.363991 Z M8.83214062,5.73605467 L12.0267656,5.73605467 L12.0267656,12.1232255 L5.63751562,12.1232255 L5.63751562,8.92964009 C5.63751562,7.16883827 7.07076562,5.73605467 8.83214062,5.73605467 Z M17.6646094,12.1232255 L24.0538594,12.1232255 L24.0538594,5.73605467 L17.6646094,5.73605467 L17.6646094,12.1232255 Z M29.691375,12.1232255 L36.080625,12.1232255 L36.080625,5.73605467 L29.691375,5.73605467 L29.691375,12.1232255 Z M41.7181406,12.1232255 L150.335719,12.1232255 L150.335719,5.73605467 L41.7181406,5.73605467 L41.7181406,12.1232255 Z M162.362484,8.92964009 L162.362484,12.1232255 L155.973234,12.1232255 L155.973234,5.73605467 L159.167859,5.73605467 C160.929234,5.73605467 162.362484,7.16883827 162.362484,8.92964009 Z M159.167859,0.100373576 L8.83214062,0.100373576 C3.96210937,0.100373576 0,4.06119362 0,8.92964009 L0,135.170405 C0,140.03918 3.96210937,144 8.83214062,144 L159.167859,144 C164.037891,144 168,140.03918 168,135.170405 L168,8.92964009 C168,4.06119362 164.037891,0.100373576 159.167859,0.100373576 Z" id="Fill-1" stroke="#CD373A" fill="#CD373A" mask="url(#mask-2)"></path>
                </g>
                <path d="M111.146587,103.93976 C112.912204,103.93976 114.348906,105.376999 114.348906,107.143276 C114.348906,108.909883 112.912204,110.346793 111.146587,110.346793 C109.38064,110.346793 107.944267,108.909883 107.944267,107.143276 C107.944267,105.376999 109.38064,103.93976 111.146587,103.93976 Z M59.9094752,110.346793 C58.1435289,110.346793 56.7068268,108.909883 56.7068268,107.143276 C56.7068268,105.376999 58.1435289,103.93976 59.9094752,103.93976 C61.6750926,103.93976 63.1117947,105.376999 63.1117947,107.143276 C63.1117947,108.909883 61.6750926,110.346793 59.9094752,110.346793 Z M117.174289,53.0602403 L99.0908537,53.0602403 C97.5301506,53.0602403 96.2651423,54.3260506 96.2651423,55.8870083 C96.2651423,57.4479659 97.5301506,58.7134471 99.0908537,58.7134471 L114.348906,58.7134471 L114.348906,80.7142632 C114.348906,82.3265508 113.142774,83.6930468 111.543587,83.892773 L73.3216548,88.6727122 C71.8441672,88.8573027 70.4485796,88.0126614 69.9262621,86.6185262 L59.4654395,58.7134471 L74.9790591,58.7134471 C76.5394333,58.7134471 77.8047705,57.4479659 77.8047705,55.8870083 C77.8047705,54.3260506 76.5394333,53.0602403 74.9790591,53.0602403 L57.3462382,53.0602403 L54.9796925,46.7469827 C53.6910023,43.3095197 50.3597481,41 46.69004,41 L41.8257114,41 C40.2650083,41 39,42.2654813 39,43.8267679 C39,45.3877256 40.2650083,46.6532068 41.8257114,46.6532068 L46.69004,46.6532068 C48.0175421,46.6532068 49.2223589,47.4889641 49.688103,48.7320707 L64.6343436,88.6039432 C65.0007553,89.5808579 65.526033,90.4557707 66.167089,91.2155201 L61.8023828,98.4925308 C61.1922449,98.3592703 60.558754,98.2865529 59.9088174,98.2865529 C55.0270563,98.2865529 51.055404,102.25969 51.055404,107.143276 C51.055404,112.026863 55.0270563,116 59.9088174,116 C63.8028457,116 67.1153518,113.471341 68.2974734,109.970044 L102.757931,109.970044 C103.940052,113.471341 107.252558,116 111.146587,116 C116.028348,116 120,112.026863 120,107.143276 C120,102.25969 116.028348,98.2865529 111.146587,98.2865529 C107.252558,98.2865529 103.940052,100.815541 102.757931,104.316838 L68.2974734,104.316838 C67.9336931,103.238908 67.3679588,102.253767 66.6456608,101.405507 L71.002144,94.1416576 C71.6205048,94.2778794 72.2576138,94.3522421 72.9068926,94.3522421 C73.2756067,94.3522421 73.6482677,94.3292094 74.0222444,94.282486 L112.243848,89.5028758 C116.665785,88.9500915 120,85.1717448 120,80.7142632 L120,55.8870083 C120,54.3260506 118.734992,53.0602403 117.174289,53.0602403 Z" id="Fill-5" fill="#CD373A"></path>
                <path d="M87,35 C85.4221839,35 84.1430353,36.2700561 84.1430353,37.8362496 L84.1430353,70.3169363 L79.8772112,66.0828656 C78.7616979,64.9752394 76.9523978,64.9752394 75.8368844,66.0828656 C74.7210385,67.1904919 74.7210385,68.9858039 75.8368844,70.0934302 L84.9798366,79.1690327 C85.5375933,79.7226808 86.2689629,80 87,80 C87.7310371,80 88.4627393,79.7230109 89.0201634,79.1690327 L98.1631156,70.0934302 C99.2789615,68.9858039 99.2789615,67.1904919 98.1631156,66.0828656 C97.0472696,64.9752394 95.2383021,64.9752394 94.1227888,66.0828656 L89.8572973,70.3169363 L89.8572973,37.8362496 C89.8572973,36.2700561 88.5781487,35 87,35" id="Fill-6" fill="#CD373A"></path>
            </g>
        </g>
    </g>
</svg>